<svg width="22" height="27" viewBox="0 0 22 27" fill="none" xmlns="http://www.w3.org/2000/svg">
<path d="M10.9885 17.8452C10.496 17.8452 10.0836 17.4328 10.0836 16.9517V5.18735L10.1523 3.46909L9.37338 4.2824L7.64366 6.13813C7.48329 6.32141 7.23128 6.41305 7.01363 6.41305C6.53252 6.41305 6.18887 6.0694 6.18887 5.59974C6.18887 5.35918 6.28051 5.1759 6.45233 5.00407L10.3242 1.26972C10.5647 1.04062 10.7594 0.960431 10.9885 0.960431C11.2291 0.960431 11.4238 1.04062 11.6529 1.26972L15.5248 5.00407C15.6966 5.1759 15.7997 5.35918 15.7997 5.59974C15.7997 6.0694 15.4331 6.41305 14.9635 6.41305C14.7344 6.41305 14.5053 6.32141 14.3449 6.13813L12.6037 4.2824L11.8362 3.46909L11.905 5.18735V16.9517C11.905 17.4328 11.4811 17.8452 10.9885 17.8452ZM4.42479 26.8145C2.03067 26.8145 0.827891 25.6232 0.827891 23.2635V11.8313C0.827891 9.47155 2.03067 8.28023 4.42479 8.28023H7.62075V10.1245H4.4477C3.30219 10.1245 2.67216 10.7431 2.67216 11.9344V23.1604C2.67216 24.3517 3.30219 24.9703 4.4477 24.9703H17.5294C18.6634 24.9703 19.3164 24.3517 19.3164 23.1604V11.9344C19.3164 10.7431 18.6634 10.1245 17.5294 10.1245H14.3678V8.28023H17.5638C19.9579 8.28023 21.1607 9.47155 21.1607 11.8313V23.2635C21.1607 25.6232 19.9579 26.8145 17.5638 26.8145H4.42479Z" fill="black"/>
</svg>
